<svg width="22" height="22" viewBox="0 0 22 22" fill="none" xmlns="http://www.w3.org/2000/svg">
<g clip-path="url(#clip0_7_51)">
<path fill-rule="evenodd" clip-rule="evenodd" d="M11.1927 21.2903C17.1614 21.2903 22 16.5245 22 10.6455C22 4.76644 17.1614 0 11.1927 0C5.22395 0 0.385393 4.76583 0.385393 10.6449C0.385393 12.0833 0.674752 13.4547 1.19956 14.7058L0.0117655 20.4463C-0.0694038 20.8399 0.291211 21.1835 0.687764 21.0901L5.82188 19.8842C7.40438 20.7783 9.23781 21.2897 11.1933 21.2897L11.1927 21.2903Z" fill="#D7D7D7"/>
<path d="M16.4459 8.4072H16.074C15.7405 5.92279 13.5765 4 10.9654 4C8.35427 4 6.18942 5.92279 5.85593 8.4072H5.48406C4.4932 8.4072 3.68628 9.20121 3.68628 10.178V12.3812C3.68628 13.3579 4.4932 14.1527 5.48406 14.1527H6.49091C6.86678 14.1527 7.17068 13.8526 7.17068 13.4832V9.07675C7.17068 7.01612 8.87329 5.3391 10.9654 5.3391C13.0575 5.3391 14.7593 7.01612 14.7593 9.07675V13.4832C14.7593 13.8526 15.064 14.1527 15.439 14.1527H16.4459C16.7122 14.1527 16.9649 14.0952 17.192 13.9928C17.8126 13.7132 18.2437 13.0956 18.2437 12.3812V10.178C18.2437 9.20121 17.4375 8.4072 16.4459 8.4072ZM5.81115 12.8136H5.48406C5.24254 12.8136 5.04581 12.6198 5.04581 12.3812V10.178C5.04581 9.94008 5.24254 9.7463 5.48406 9.7463H5.81115V12.8136ZM16.1188 9.7463H16.4459C16.6874 9.7463 16.8841 9.94008 16.8841 10.178V12.3812C16.8841 12.6198 16.6874 12.8136 16.4459 12.8136H16.1188V9.7463Z" fill="#353538"/>
<path d="M5.81111 9.74631V12.8136H5.48403C5.24251 12.8136 5.04578 12.6199 5.04578 12.3812V10.178C5.04578 9.94008 5.24251 9.74631 5.48403 9.74631H5.81111Z" fill="#353538"/>
<path d="M16.8842 10.178V12.3812C16.8842 12.6199 16.6875 12.8136 16.446 12.8136H16.1189V9.74631H16.446C16.6875 9.74631 16.8842 9.94008 16.8842 10.178Z" fill="#353538"/>
<path d="M14.3209 16.356H13.2021C12.827 16.356 12.5223 16.0558 12.5223 15.6864C12.5223 15.317 12.827 15.0169 13.2021 15.0169H14.3209C15.1798 15.0169 15.878 14.3284 15.878 13.4832C15.878 13.1138 16.1827 12.8137 16.5577 12.8137C16.9328 12.8137 17.2375 13.1138 17.2375 13.4832C17.2375 15.0673 15.9292 16.356 14.3209 16.356Z" fill="#353538"/>
<path d="M12.6115 14.6331L11.4424 14.5861C10.8705 14.563 10.3879 15.0009 10.3646 15.564C10.3412 16.1271 10.7859 16.6023 11.3578 16.6253L12.5269 16.6723C13.0988 16.6954 13.5814 16.2575 13.6047 15.6944C13.6281 15.1313 13.1834 14.6561 12.6115 14.6331Z" fill="#353538"/>
</g>
<defs>
<clipPath id="clip0_7_51">
<rect width="22" height="21.2903" fill="white"/>
</clipPath>
</defs>
</svg>
